<svg width="37" height="37" viewBox="0 0 37 37" fill="none" xmlns="http://www.w3.org/2000/svg">
<g clip-path="url(#clip0)">
<path d="M33.2975 19.6961H27.9974V1.43947C27.9974 0.773537 27.9974 0.773537 27.6634 0.773537L9.70547 0.748472C9.29343 0.748472 9.27772 1.02743 9.27772 1.43947V19.6709L3.48734 19.6961C3.0753 19.6962 2.74132 20.0303 2.74146 20.4424C2.74153 20.6397 2.81979 20.8292 2.95912 20.9689L17.8433 35.9023C17.9832 36.0427 18.1733 36.1216 18.3715 36.1217C18.5695 36.122 18.7596 36.0437 18.8997 35.9038L33.8212 20.9704C34.1129 20.6794 34.1135 20.207 33.8225 19.9153C33.6834 19.7757 33.4946 19.6969 33.2975 19.6961Z" fill="#2D69C4"/>
<path d="M18.086 13.6039L18.1307 14.8297C18.1188 15.5633 17.9518 16.1419 17.6297 16.5654H22.4074V18.7485H14.3014V16.5654H14.9635C15.2558 16.4759 15.4168 16.1031 15.4466 15.447L15.4556 14.9818L15.4198 13.6039H14.2835V11.4835H15.3661L15.3124 9.45251C15.3124 8.24764 15.6345 7.29627 16.2787 6.59841C16.9229 5.90054 17.7788 5.5516 18.8465 5.5516C19.944 5.5516 20.8059 5.88563 21.4322 6.55367C22.0645 7.22172 22.3806 8.13431 22.3806 9.29146H19.8844C19.8844 8.79043 19.7919 8.40571 19.607 8.13729C19.4281 7.86888 19.1746 7.73468 18.8465 7.73468C18.596 7.73468 18.3813 7.87783 18.2023 8.16414C18.0293 8.45044 17.9429 8.8799 17.9429 9.45251L18.0144 11.4835H20.2512V13.6039H18.086Z" fill="white"/>
</g>
<defs>
<clipPath id="clip0">
<rect width="35.8235" height="35.8235" fill="white" transform="translate(0.482178 0.298096)"/>
</clipPath>
</defs>
</svg>
