<svg width="36" height="36" viewBox="0 0 36 36" fill="none" xmlns="http://www.w3.org/2000/svg">
<path d="M29.3354 17.8655H24.594V0.65154C24.594 0.0236337 24.594 0.0236337 24.2951 0.0236337L8.23001 0C7.86139 0 7.84734 0.263027 7.84734 0.651538V17.8418L2.66727 17.8656C2.29866 17.8657 1.99987 18.1807 2 18.5692C2.00006 18.7553 2.07008 18.9339 2.19472 19.0657L15.5101 33.1463C15.6353 33.2786 15.8053 33.353 15.9826 33.3531C16.1598 33.3534 16.3298 33.2796 16.4552 33.1477L29.8039 19.0671C30.0649 18.7927 30.0654 18.3473 29.8051 18.0722C29.6806 17.9406 29.5117 17.8663 29.3354 17.8655Z" fill="#E7CE4F"/>
</svg>
