<svg width="44" height="26" viewBox="0 0 44 26" fill="none" xmlns="http://www.w3.org/2000/svg">
<mask id="mask0" mask-type="alpha" maskUnits="userSpaceOnUse" x="0" y="0" width="44" height="26">
<path d="M36.8987 10.96V5.09374C36.8982 4.73653 36.7562 4.39407 36.5036 4.14148C36.251 3.88889 35.9085 3.74681 35.5513 3.7464H32.8566C32.4994 3.74681 32.1569 3.88889 31.9044 4.14148C31.6518 4.39407 31.5097 4.73653 31.5093 5.09374V6.27695L36.8987 10.96Z" fill="black"/>
<path d="M43.0417 18.0825L22.8569 0.543187C22.7342 0.436748 22.5773 0.378143 22.4149 0.378143C22.2526 0.378143 22.0956 0.436748 21.973 0.543187L1.78833 18.0825C1.49584 18.3368 1.26137 18.6509 1.10077 19.0036C0.940164 19.3563 0.85718 19.7393 0.857425 20.1269V24.6258C0.856827 24.8838 0.930297 25.1364 1.0691 25.3538C1.20791 25.5712 1.40621 25.7442 1.64045 25.8522C1.87468 25.9602 2.135 25.9987 2.39046 25.9631C2.64593 25.9275 2.88579 25.8193 3.08156 25.6513L22.4149 9.04649L41.7485 25.6515C41.9907 25.8617 42.3004 25.9779 42.6212 25.9786C42.8164 25.9783 43.0093 25.9356 43.1865 25.8536C43.4222 25.747 43.622 25.5742 43.7615 25.3563C43.901 25.1383 43.9743 24.8846 43.9725 24.6258V20.1269C43.9727 19.7394 43.8897 19.3563 43.7292 19.0036C43.5686 18.6509 43.3342 18.3368 43.0417 18.0825Z" fill="black"/>
<path d="M21.7413 18.904V15.1988H19.0466C18.6894 15.1992 18.3469 15.3413 18.0943 15.5939C17.8417 15.8465 17.6996 16.189 17.6992 16.5462V18.904H21.7413Z" fill="black"/>
<path d="M23.0884 18.904H27.1304V16.5462C27.13 16.189 26.9879 15.8465 26.7353 15.5939C26.4827 15.3413 26.1403 15.1992 25.7831 15.1988H23.0884V18.904Z" fill="black"/>
<path d="M21.7413 20.2514H17.6992V22.6093C17.6996 22.9665 17.8417 23.3089 18.0943 23.5615C18.3469 23.8141 18.6894 23.9562 19.0466 23.9566H21.7413V20.2514Z" fill="black"/>
<path d="M23.0884 20.2514V23.9566H25.7831C26.1403 23.9562 26.4827 23.8141 26.7353 23.5615C26.9879 23.3089 27.13 22.9665 27.1304 22.6093V20.2514H23.0884Z" fill="black"/>
</mask>
<g mask="url(#mask0)">
<rect x="-1.62939" y="-16.8734" width="48.7767" height="59.6026" fill="#25559D"/>
</g>
</svg>
