<svg width="58" height="36" viewBox="0 0 58 36" fill="none" xmlns="http://www.w3.org/2000/svg">
<mask id="mask0" mask-type="alpha" maskUnits="userSpaceOnUse" x="0" y="0" width="58" height="36">
<path d="M56.6107 14.3266L53.2715 13.8768C50.9762 13.0809 48.2945 9.98395 48.0638 6.74279C47.885 4.20523 49.2749 2.52121 49.8112 1.97333L56.1494 1.92719C56.5992 1.92142 56.9625 1.55232 56.9625 1.10248C56.9625 0.65264 56.5934 0.289307 56.1436 0.289307H56.1378L33.9515 0.44502C33.9457 0.44502 33.9399 0.44502 33.9399 0.44502L3.36805 0.669941C3.09122 0.635338 2.41646 0.623803 1.81667 1.16592C1.02657 1.88105 0.749744 3.1729 0.980431 5.11068C1.39567 8.7094 6.11323 9.19385 6.28048 9.20538L12.4802 10.0359C12.4629 13.8883 12.4629 18.1157 12.5321 19.8055C12.659 22.8909 13.0454 32.2914 24.4875 35.5845C25.1853 35.7806 28.2535 35.8844 33.6227 35.8844C35.1972 35.8844 36.9677 35.8786 38.9343 35.8613C39.3842 35.8556 39.7475 35.4865 39.7417 35.0366C39.736 34.5868 39.3726 34.2292 38.9228 34.2292H38.917C29.4415 34.31 25.4795 34.1773 24.9316 34.0158C14.6256 31.0515 14.2738 22.5391 14.1585 19.742C14.0893 17.9888 14.0893 13.3232 14.1123 9.29189C14.1123 9.28035 14.1123 9.27459 14.1123 9.26305C14.1181 8.28263 14.1239 7.34258 14.1296 6.4948C14.4064 7.22723 14.8159 7.97697 15.4042 8.6575C16.6095 10.0589 18.3224 10.9009 20.5024 11.1547C20.4389 12.7407 20.312 16.3048 20.4274 18.0984L20.4389 18.3406C20.5831 20.7628 20.9637 27.199 28.9859 28.3582C29.7702 28.4736 33.121 28.4505 38.9458 28.2948C39.3957 28.2832 39.7533 27.9084 39.7417 27.4528C39.7302 27.0087 39.3668 26.6569 38.9228 26.6569C38.917 26.6569 38.9055 26.6569 38.8997 26.6569C33.4901 26.8011 29.8683 26.8299 29.2166 26.7319C22.5093 25.763 22.2095 20.6821 22.0653 18.2368L22.048 17.9888C21.9442 16.3336 22.0537 12.9483 22.1172 11.3335L56.3801 15.9357C56.4147 15.9415 56.455 15.9415 56.4896 15.9415C56.8933 15.9415 57.2451 15.6416 57.297 15.2321C57.372 14.7938 57.0548 14.3843 56.6107 14.3266ZM46.4374 6.85814C46.6104 9.34956 47.96 11.7314 49.644 13.3866L37.1869 11.7141C34.7127 10.0993 33.3228 8.31147 33.0748 6.39099C32.8153 4.37248 33.8938 2.70576 34.3609 2.0829L47.7235 1.99063C47.0141 3.07486 46.2875 4.72428 46.4374 6.85814ZM24.672 10.0301C22.7112 8.88819 21.5405 7.5329 21.2117 5.99306C20.8484 4.28597 21.6097 2.75766 21.9615 2.16941L32.4001 2.09444C31.8118 3.14983 31.212 4.73004 31.4485 6.57554C31.6619 8.26533 32.5385 9.83977 34.0207 11.2816L24.672 10.0301ZM8.28746 7.82702C8.27016 7.81549 8.25863 7.80395 8.24709 7.79819C6.71879 6.97348 5.96328 5.7566 5.99212 4.17639C6.00942 3.39782 6.21127 2.70576 6.36699 2.28475L10.1906 2.25592C9.55048 3.8419 9.28519 6.07956 10.6347 8.13845L8.28746 7.82702ZM12.5263 2.53851C12.5263 2.76343 12.5033 5.02994 12.486 7.8847C10.479 5.66433 11.5113 3.16137 12.0015 2.25015L12.5898 2.24438C12.5494 2.33666 12.5263 2.4347 12.5263 2.53851ZM2.60101 4.92036C2.38186 3.06332 2.76826 2.51544 2.89514 2.39433C3.01048 2.27899 3.13159 2.28475 3.13159 2.28475C3.18927 2.29629 3.2527 2.30206 3.31614 2.30206L4.61953 2.29052C4.20429 3.73809 4.12932 5.68163 5.27699 7.33681C4.20429 7.03115 2.76826 6.35062 2.60101 4.92036ZM16.6499 7.6021C14.9255 5.60665 15.1793 2.74036 15.185 2.71153C15.2023 2.53851 15.162 2.37126 15.0754 2.22131L20.116 2.18671C19.6777 3.1729 19.2567 4.65507 19.6085 6.31602C19.8622 7.51559 20.4793 8.61136 21.4309 9.59755C21.4194 9.59755 21.4021 9.59178 21.3905 9.59178C19.297 9.48797 17.6995 8.81898 16.6499 7.6021Z" fill="black"/>
</mask>
<g mask="url(#mask0)">
<rect x="66.1055" y="35.8845" width="76.6051" height="44.2404" transform="rotate(-180 66.1055 35.8845)" fill="#25559D"/>
</g>
</svg>
