<svg width="72" height="62" viewBox="0 0 72 62" fill="none" xmlns="http://www.w3.org/2000/svg">
<path d="M11.7311 26.188H13.4128C15.0609 26.188 16.2773 25.9133 17.0621 25.364C17.8469 24.8146 18.2393 23.9513 18.2393 22.7741C18.2393 21.6081 17.8357 20.7785 17.0285 20.2852C16.2325 19.7918 14.9936 19.5452 13.3119 19.5452H11.7311V26.188ZM11.7311 30.426V39.8604H6.51772V15.2736H13.6819C17.0229 15.2736 19.495 15.8846 21.0983 17.1067C22.7015 18.3175 23.5031 20.1618 23.5031 22.6396C23.5031 24.0859 23.1051 25.3752 22.3091 26.5075C21.5131 27.6287 20.3863 28.5088 18.9289 29.1478C22.6287 34.6751 25.0391 38.246 26.1603 39.8604H20.3751L14.5059 30.426H11.7311ZM37.8994 26.0535H47.6534V38.801C46.0726 39.3167 44.5815 39.6755 43.18 39.8773C41.7898 40.0903 40.3659 40.1968 38.9084 40.1968C35.1974 40.1968 32.3609 39.1093 30.3989 36.9342C28.4481 34.748 27.4727 31.6144 27.4727 27.5334C27.4727 23.5645 28.6051 20.4701 30.8698 18.2503C33.1457 16.0304 36.2962 14.9204 40.3211 14.9204C42.8437 14.9204 45.2766 15.425 47.6198 16.434L45.8876 20.6047C44.0938 19.7078 42.227 19.2593 40.2874 19.2593C38.0339 19.2593 36.2289 20.0161 34.8723 21.5296C33.5157 23.0432 32.8374 25.0781 32.8374 27.6343C32.8374 30.3026 33.3812 32.3431 34.4687 33.7558C35.5674 35.1572 37.1594 35.8579 39.2448 35.8579C40.3323 35.8579 41.4366 35.7458 42.5578 35.5216V30.3923H37.8994V26.0535ZM67.3471 33.0326C67.3471 35.2525 66.5455 37.0015 64.9422 38.2796C63.3502 39.5577 61.1303 40.1968 58.2826 40.1968C55.6591 40.1968 53.3383 39.7035 51.3202 38.7169V33.8735C52.9795 34.6135 54.381 35.1348 55.5246 35.4375C56.6793 35.7402 57.7332 35.8916 58.6862 35.8916C59.8298 35.8916 60.7043 35.6729 61.3097 35.2357C61.9263 34.7984 62.2346 34.1482 62.2346 33.2849C62.2346 32.8028 62.1001 32.3768 61.831 32.0068C61.562 31.6256 61.1639 31.2612 60.637 30.9137C60.1213 30.5661 59.0618 30.0111 57.4585 29.2488C55.9562 28.5424 54.8294 27.8641 54.0783 27.2139C53.3271 26.5636 52.7273 25.8068 52.2788 24.9435C51.8304 24.0802 51.6061 23.0712 51.6061 21.9164C51.6061 19.7414 52.3405 18.0316 53.8092 16.7872C55.2891 15.5427 57.3296 14.9204 59.9307 14.9204C61.2088 14.9204 62.4252 15.0718 63.58 15.3745C64.746 15.6772 65.9625 16.1033 67.2294 16.6526L65.5476 20.7056C64.2359 20.1674 63.1484 19.7918 62.2851 19.5788C61.433 19.3658 60.5922 19.2593 59.7625 19.2593C58.7759 19.2593 58.0191 19.4891 57.4922 19.9488C56.9652 20.4085 56.7018 21.0083 56.7018 21.7483C56.7018 22.2079 56.8083 22.6115 57.0213 22.9591C57.2343 23.2954 57.5707 23.6262 58.0303 23.9513C58.5012 24.2652 59.6055 24.837 61.3433 25.6667C63.6417 26.7654 65.2169 27.8697 66.069 28.9797C66.9211 30.0784 67.3471 31.4294 67.3471 33.0326Z" fill="#2D69C4"/>
<path d="M8.35978 51.751V56.4544H7.04467V45.1445H10.1468C11.5341 45.1445 12.5578 45.4101 13.218 45.9413C13.8832 46.4725 14.2159 47.2718 14.2159 48.3394C14.2159 49.835 13.4578 50.8459 11.9415 51.3719L15.0127 56.4544H13.4578L10.7192 51.751H8.35978ZM8.35978 50.6215H10.1623C11.0906 50.6215 11.7713 50.4384 12.2045 50.0723C12.6378 49.7009 12.8544 49.1465 12.8544 48.409C12.8544 47.6612 12.6326 47.1223 12.1891 46.7922C11.7507 46.4622 11.0442 46.2971 10.0694 46.2971H8.35978V50.6215ZM24.7553 52.2074C24.7553 53.5895 24.4072 54.67 23.711 55.4487C23.0147 56.2223 22.0529 56.6091 20.8255 56.6091C20.0674 56.6091 19.3943 56.4312 18.8064 56.0753C18.2185 55.7195 17.7646 55.2089 17.4449 54.5436C17.1251 53.8783 16.9652 53.0996 16.9652 52.2074C16.9652 50.8252 17.3108 49.7499 18.0019 48.9815C18.6929 48.2079 19.6522 47.8211 20.8796 47.8211C22.0658 47.8211 23.007 48.2156 23.7032 49.0047C24.4046 49.7938 24.7553 50.8613 24.7553 52.2074ZM18.2958 52.2074C18.2958 53.2904 18.5124 54.1156 18.9456 54.6829C19.3789 55.2502 20.0158 55.5338 20.8564 55.5338C21.6971 55.5338 22.334 55.2528 22.7672 54.6906C23.2056 54.1233 23.4247 53.2956 23.4247 52.2074C23.4247 51.1295 23.2056 50.3121 22.7672 49.7551C22.334 49.1929 21.6919 48.9119 20.8409 48.9119C20.0003 48.9119 19.366 49.1878 18.9379 49.7396C18.5098 50.2914 18.2958 51.114 18.2958 52.2074ZM35.1246 52.2074C35.1246 53.5895 34.7765 54.67 34.0802 55.4487C33.384 56.2223 32.4222 56.6091 31.1947 56.6091C30.4366 56.6091 29.7636 56.4312 29.1756 56.0753C28.5877 55.7195 28.1339 55.2089 27.8141 54.5436C27.4944 53.8783 27.3345 53.0996 27.3345 52.2074C27.3345 50.8252 27.68 49.7499 28.3711 48.9815C29.0622 48.2079 30.0214 47.8211 31.2489 47.8211C32.4351 47.8211 33.3763 48.2156 34.0725 49.0047C34.7739 49.7938 35.1246 50.8613 35.1246 52.2074ZM28.6651 52.2074C28.6651 53.2904 28.8817 54.1156 29.3149 54.6829C29.7481 55.2502 30.385 55.5338 31.2257 55.5338C32.0663 55.5338 32.7032 55.2528 33.1364 54.6906C33.5748 54.1233 33.794 53.2956 33.794 52.2074C33.794 51.1295 33.5748 50.3121 33.1364 49.7551C32.7032 49.1929 32.0612 48.9119 31.2102 48.9119C30.3696 48.9119 29.7352 49.1878 29.3072 49.7396C28.8791 50.2914 28.6651 51.114 28.6651 52.2074ZM41.9972 48.9738H39.8389V56.4544H38.5547V48.9738H37.0385V48.3936L38.5547 47.9294V47.4575C38.5547 45.374 39.465 44.3322 41.2855 44.3322C41.7342 44.3322 42.2602 44.4224 42.8636 44.6029L42.531 45.6318C42.0359 45.472 41.613 45.392 41.2623 45.392C40.7775 45.392 40.4191 45.5545 40.187 45.8794C39.9549 46.1991 39.8389 46.7149 39.8389 47.4266V47.9758H41.9972V48.9738ZM44.8285 56.4544H43.5444V47.9758H44.8285V56.4544ZM43.4361 45.6782C43.4361 45.3843 43.5083 45.1702 43.6527 45.0362C43.7971 44.8969 43.9776 44.8273 44.1942 44.8273C44.4005 44.8273 44.5784 44.8969 44.728 45.0362C44.8775 45.1754 44.9523 45.3894 44.9523 45.6782C44.9523 45.9671 44.8775 46.1837 44.728 46.3281C44.5784 46.4673 44.4005 46.5369 44.1942 46.5369C43.9776 46.5369 43.7971 46.4673 43.6527 46.3281C43.5083 46.1837 43.4361 45.9671 43.4361 45.6782ZM54.1457 56.4544V50.9696C54.1457 50.2785 53.9884 49.7628 53.6738 49.4224C53.3592 49.0821 52.8667 48.9119 52.1963 48.9119C51.3092 48.9119 50.6594 49.1517 50.2468 49.6313C49.8342 50.1109 49.6279 50.9026 49.6279 52.0062V56.4544H48.3438V47.9758H49.3881L49.597 49.1362H49.6589C49.9219 48.7185 50.2906 48.3961 50.7651 48.1692C51.2396 47.9371 51.7682 47.8211 52.351 47.8211C53.3721 47.8211 54.1406 48.0686 54.6563 48.5637C55.172 49.0537 55.4299 49.8402 55.4299 50.9232V56.4544H54.1457ZM65.8069 47.9758V48.7881L64.2365 48.9738C64.3809 49.1543 64.5098 49.3915 64.6233 49.6855C64.7367 49.9743 64.7935 50.3018 64.7935 50.6679C64.7935 51.4982 64.5098 52.161 63.9425 52.6561C63.3752 53.1512 62.5965 53.3987 61.6063 53.3987C61.3535 53.3987 61.1163 53.3781 60.8945 53.3368C60.3479 53.6256 60.0745 53.9892 60.0745 54.4276C60.0745 54.6597 60.1699 54.8324 60.3608 54.9459C60.5516 55.0542 60.8791 55.1084 61.3432 55.1084H62.844C63.762 55.1084 64.466 55.3018 64.9559 55.6885C65.451 56.0753 65.6986 56.6375 65.6986 57.375C65.6986 58.3136 65.3221 59.0279 64.5691 59.5178C63.8162 60.0129 62.7177 60.2605 61.2736 60.2605C60.1648 60.2605 59.3087 60.0542 58.7053 59.6416C58.107 59.229 57.8079 58.6463 57.8079 57.8933C57.8079 57.3776 57.9729 56.9315 58.303 56.555C58.6331 56.1785 59.0972 55.9232 59.6955 55.7891C59.4789 55.6911 59.2958 55.539 59.1462 55.3327C59.0018 55.1264 58.9296 54.8866 58.9296 54.6133C58.9296 54.3038 59.0121 54.0331 59.1772 53.801C59.3422 53.5689 59.6026 53.3446 59.9585 53.128C59.5201 52.9474 59.1617 52.6406 58.8832 52.2074C58.6099 51.7742 58.4732 51.2791 58.4732 50.7221C58.4732 49.7938 58.7517 49.0795 59.3087 48.5792C59.8657 48.0738 60.6547 47.8211 61.6759 47.8211C62.1194 47.8211 62.5191 47.8727 62.8749 47.9758H65.8069ZM59.0457 57.8778C59.0457 58.3368 59.2391 58.6849 59.6259 58.9222C60.0127 59.1594 60.5671 59.278 61.2891 59.278C62.367 59.278 63.1638 59.1156 63.6795 58.7907C64.2004 58.4709 64.4608 58.0351 64.4608 57.4833C64.4608 57.0243 64.319 56.7045 64.0353 56.524C63.7517 56.3487 63.2179 56.261 62.434 56.261H60.8945C60.3118 56.261 59.8579 56.4003 59.533 56.6787C59.2081 56.9572 59.0457 57.3569 59.0457 57.8778ZM59.7419 50.6911C59.7419 51.2842 59.9095 51.7329 60.2447 52.0372C60.58 52.3415 61.0467 52.4936 61.6449 52.4936C62.8982 52.4936 63.5248 51.885 63.5248 50.6679C63.5248 49.3941 62.8904 48.7571 61.6217 48.7571C61.0183 48.7571 60.5542 48.9196 60.2293 49.2445C59.9043 49.5694 59.7419 50.0516 59.7419 50.6911Z" fill="#2F2F2F"/>
<path d="M0.992697 9.90591C0.348518 10.074 -0.0373979 10.7325 0.13073 11.3767C0.298858 12.0209 0.957362 12.4068 1.60154 12.2387L0.992697 9.90591ZM35.6681 2.10162L35.9671 0.933836L35.6652 0.856535L35.3637 0.935234L35.6681 2.10162ZM70.4038 12.2401C71.0488 12.4052 71.7055 12.0162 71.8706 11.3713C72.0358 10.7263 71.6468 10.0696 71.0019 9.90448L70.4038 12.2401ZM1.60154 12.2387L35.9725 3.26801L35.3637 0.935234L0.992697 9.90591L1.60154 12.2387ZM35.3691 3.26941L70.4038 12.2401L71.0019 9.90448L35.9671 0.933836L35.3691 3.26941Z" fill="#515151"/>
</svg>
