<svg width="27" height="24" viewBox="0 0 27 24" fill="none" xmlns="http://www.w3.org/2000/svg">
<path d="M25.3646 0.973649C24.1913 0.3419 22.8827 1.56027 22.1156 2.28227C20.3558 3.99702 18.8666 5.98252 17.1969 7.78752C15.3468 9.77302 13.6321 11.7585 11.7368 13.699C10.6538 14.782 9.48057 15.9552 8.75857 17.309C7.13407 15.7295 5.73519 14.0148 3.93019 12.616C2.62157 11.6232 0.455569 10.9012 0.500694 13.2928C0.590944 16.4065 3.34357 19.7458 5.37419 21.8666C6.23157 22.7691 7.35969 23.7167 8.66832 23.7618C10.2477 23.8521 11.8722 21.9568 12.8198 20.919C14.4895 19.114 15.8433 17.0833 17.3774 15.2332C19.3629 12.7965 21.3936 10.4048 23.3339 7.9229C24.5523 6.38865 28.3879 2.59808 25.3646 0.973649ZM2.48612 13.1123C2.44099 13.1123 2.39587 13.1123 2.30562 13.1574C2.12512 13.1123 1.98974 13.0671 1.80924 12.9769C1.94462 12.8866 2.17024 12.9318 2.48612 13.1123Z" fill="#294B7F"/>
</svg>
