<svg width="34" height="33" viewBox="0 0 34 33" fill="none" xmlns="http://www.w3.org/2000/svg">
<mask id="mask0" mask-type="alpha" maskUnits="userSpaceOnUse" x="0" y="0" width="34" height="33">
<path d="M0.097168 25.7903C0.0996468 27.1664 0.514882 28.5101 1.28918 29.6476C2.06348 30.7852 3.16123 31.6643 4.4405 32.1713C5.71977 32.6783 7.12171 32.7898 8.46506 32.4916C9.80841 32.1933 11.0314 31.4988 11.9758 30.498C12.6163 31.1833 13.3907 31.7297 14.2511 32.1032C15.1115 32.4767 16.0394 32.6695 16.9774 32.6695C17.9153 32.6695 18.8433 32.4767 19.7037 32.1032C20.564 31.7297 21.3385 31.1833 21.9789 30.498C22.9234 31.4988 24.1464 32.1933 25.4897 32.4916C26.8331 32.7898 28.235 32.6783 29.5143 32.1713C30.7935 31.6643 31.8913 30.7852 32.6656 29.6476C33.4399 28.5101 33.8551 27.1664 33.8576 25.7903V12.6613H33.8263C33.8263 12.455 33.8576 12.2486 33.8576 12.0361V0.15741H0.097168V12.0361C0.097168 12.2486 0.0971675 12.455 0.128427 12.6613H0.097168V25.7903ZM6.97429 28.9163C6.14524 28.9163 5.35013 28.587 4.7639 28.0007C4.17767 27.4145 3.84833 26.6194 3.84833 25.7903V18.1567C4.81479 18.6556 5.88664 18.916 6.97429 18.916C8.06194 18.916 9.13379 18.6556 10.1003 18.1567V25.7903C10.1003 26.6194 9.77092 27.4145 9.18469 28.0007C8.59845 28.587 7.80335 28.9163 6.97429 28.9163ZM16.9774 28.9163C16.1483 28.9163 15.3532 28.587 14.767 28.0007C14.1808 27.4145 13.8514 26.6194 13.8514 25.7903V18.1567C14.8179 18.6556 15.8897 18.916 16.9774 18.916C18.065 18.916 19.1369 18.6556 20.1034 18.1567V25.7903C20.1034 26.6194 19.774 27.4145 19.1878 28.0007C18.6015 28.587 17.8064 28.9163 16.9774 28.9163ZM26.9805 28.9163C26.1514 28.9163 25.3563 28.587 24.7701 28.0007C24.1839 27.4145 23.8545 26.6194 23.8545 25.7903V18.1567C24.821 18.6556 25.8928 18.916 26.9805 18.916C28.0681 18.916 29.14 18.6556 30.1064 18.1567V25.7903C30.1064 26.6194 29.7771 27.4145 29.1909 28.0007C28.6046 28.587 27.8095 28.9163 26.9805 28.9163ZM23.8545 3.90857H30.1064V12.0361C30.1064 12.8651 29.7771 13.6602 29.1909 14.2465C28.6046 14.8327 27.8095 15.162 26.9805 15.162C26.1514 15.162 25.3563 14.8327 24.7701 14.2465C24.1839 13.6602 23.8545 12.8651 23.8545 12.0361V3.90857ZM13.8514 3.90857H20.1034V12.0361C20.1034 12.8651 19.774 13.6602 19.1878 14.2465C18.6015 14.8327 17.8064 15.162 16.9774 15.162C16.1483 15.162 15.3532 14.8327 14.767 14.2465C14.1808 13.6602 13.8514 12.8651 13.8514 12.0361V3.90857ZM3.84833 3.90857H10.1003V12.0361C10.1003 12.8651 9.77092 13.6602 9.18469 14.2465C8.59845 14.8327 7.80335 15.162 6.97429 15.162C6.14524 15.162 5.35013 14.8327 4.7639 14.2465C4.17767 13.6602 3.84833 12.8651 3.84833 12.0361V3.90857Z" fill="black"/>
</mask>
<g mask="url(#mask0)">
<rect x="38.314" y="37.7319" width="40.754" height="45.2493" transform="rotate(-180 38.314 37.7319)" fill="#25559D"/>
</g>
</svg>
